{"accessors" : [{"bufferView" : 0, "byteOffset" : 0, "componentType" : 5123, "count" : 82824, "type" : "SCALAR", "max" : [65262], "min" : [0]}, {"bufferView" : 1, "byteOffset" : 0, "componentType" : 5126, "count" : 65263, "type" : "VEC3", "max" : [8.511999130249023, 5.482105255126953, 6.8848700523376465], "min" : [-6.558905601501465, -5.778426647186279, -6.063563346862793], "name" : "POSITION"}, {"bufferView" : 1, "byteOffset" : 12, "componentType" : 5126, "count" : 65263, "type" : "VEC3", "max" : [0.9995431900024414, 0.9999954700469971, 0.9999316334724426], "min" : [-0.9999558329582214, -1.0000016689300537, -1.0000001192092896], "name" : "NORMAL"}, {"bufferView" : 0, "byteOffset" : 165648, "componentType" : 5123, "count" : 108, "type" : "SCALAR", "max" : [89], "min" : [0]}, {"bufferView" : 2, "byteOffset" : 0, "componentType" : 5126, "count" : 90, "type" : "VEC3", "max" : [-1.9667282104492188, 1.487406849861145, -3.317026138305664], "min" : [-3.740007162094116, 0.4747459590435028, -5.865939617156982], "name" : "POSITION"}, {"bufferView" : 2, "byteOffset" : 12, "componentType" : 5126, "count" : 90, "type" : "VEC3", "max" : [0.890766978263855, 0.937869668006897, 0.6777907609939575], "min" : [-0.94391930103302, -0.92728191614151, -0.882379949092865], "name" : "NORMAL"}, {"bufferView" : 0, "byteOffset" : 165864, "componentType" : 5123, "count" : 108, "type" : "SCALAR", "max" : [89], "min" : [0]}, {"bufferView" : 3, "byteOffset" : 0, "componentType" : 5126, "count" : 90, "type" : "VEC3", "max" : [-4.011271953582764, -0.6267412304878235, -0.0958346500992775], "min" : [-6.157233238220215, -1.7511993646621704, -1.316975712776184], "name" : "POSITION"}, {"bufferView" : 3, "byteOffset" : 12, "componentType" : 5126, "count" : 90, "type" : "VEC3", "max" : [0.8087568283081055, 0.9244399666786194, 0.9842476844787598], "min" : [-0.8676071166992188, -0.9002797603607178, -0.9930121302604675], "name" : "NORMAL"}, {"bufferView" : 0, "byteOffset" : 166080, "componentType" : 5123, "count" : 108, "type" : "SCALAR", "max" : [89], "min" : [0]}, {"bufferView" : 4, "byteOffset" : 0, "componentType" : 5126, "count" : 90, "type" : "VEC3", "max" : [-2.5067198276519775, -2.1171183586120605, -1.8193073272705078], "min" : [-4.309786796569824, -3.9078235626220703, -3.4012749195098877], "name" : "POSITION"}, {"bufferView" : 4, "byteOffset" : 12, "componentType" : 5126, "count" : 90, "type" : "VEC3", "max" : [0.9201498627662659, 0.8758498430252075, 0.9944264888763428], "min" : [-0.989371657371521, -0.9915047287940979, -0.9365342259407043], "name" : "NORMAL"}, {"bufferView" : 0, "byteOffset" : 166296, "componentType" : 5123, "count" : 108, "type" : "SCALAR", "max" : [89], "min" : [0]}, {"bufferView" : 5, "byteOffset" : 0, "componentType" : 5126, "count" : 90, "type" : "VEC3", "max" : [-4.375685691833496, 1.1329705715179443, 0.200977623462677], "min" : [-6.63059663772583, -0.15885113179683685, -1.4278533458709717], "name" : "POSITION"}, {"bufferView" : 5, "byteOffset" : 12, "componentType" : 5126, "count" : 90, "type" : "VEC3", "max" : [0.8650561571121216, 0.9065130949020386, 0.9319379925727844], "min" : [-0.8582680821418762, -0.9130933880805969, -0.934195876121521], "name" : "NORMAL"}, {"bufferView" : 0, "byteOffset" : 166512, "componentType" : 5123, "count" : 108, "type" : "SCALAR", "max" : [90], "min" : [0]}, {"bufferView" : 6, "byteOffset" : 0, "componentType" : 5126, "count" : 91, "type" : "VEC3", "max" : [-1.1958363056182861, -0.7086689472198486, -3.510488986968994], "min" : [-2.4455864429473877, -2.0501677989959717, -5.965537071228027], "name" : "POSITION"}, {"bufferView" : 6, "byteOffset" : 12, "componentType" : 5126, "count" : 91, "type" : "VEC3", "max" : [0.9678713083267212, 0.9571090340614319, 0.8518865704536438], "min" : [-0.9183145761489868, -0.9483984112739563, -0.8962911367416382], "name" : "NORMAL"}, {"bufferView" : 0, "byteOffset" : 166728, "componentType" : 5123, "count" : 108, "type" : "SCALAR", "max" : [89], "min" : [0]}, {"bufferView" : 7, "byteOffset" : 0, "componentType" : 5126, "count" : 90, "type" : "VEC3", "max" : [-3.6229617595672607, -0.24290312826633453, -2.3327481746673584], "min" : [-5.813212871551514, -1.1578459739685059, -4.301599979400635], "name" : "POSITION"}, {"bufferView" : 7, "byteOffset" : 12, "componentType" : 5126, "count" : 90, "type" : "VEC3", "max" : [0.8101915121078491, 0.9483485221862793, 0.9307980537414551], "min" : [-0.8438735008239746, -0.9248390197753906, -0.9736361503601074], "name" : "NORMAL"}, {"bufferView" : 0, "byteOffset" : 166944, "componentType" : 5123, "count" : 108, "type" : "SCALAR", "max" : [90], "min" : [0]}, {"bufferView" : 8, "byteOffset" : 0, "componentType" : 5126, "count" : 91, "type" : "VEC3", "max" : [-3.4260287284851074, 2.2851240634918213, -1.7319153547286987], "min" : [-5.618434906005859, 0.9234296083450317, -3.35805606842041], "name" : "POSITION"}, {"bufferView" : 8, "byteOffset" : 12, "componentType" : 5126, "count" : 91, "type" : "VEC3", "max" : [0.8880928754806519, 0.8962689638137817, 0.9194016456604004], "min" : [-0.8695673942565918, -0.9196852445602417, -0.9245705008506775], "name" : "NORMAL"}, {"bufferView" : 0, "byteOffset" : 167160, "componentType" : 5123, "count" : 108, "type" : "SCALAR", "max" : [89], "min" : [0]}, {"bufferView" : 9, "byteOffset" : 0, "componentType" : 5126, "count" : 90, "type" : "VEC3", "max" : [-2.742668628692627, -2.8046271800994873, -0.4078652858734131], "min" : [-4.570641994476318, -4.6900200843811035, -1.7318120002746582], "name" : "POSITION"}, {"bufferView" : 9, "byteOffset" : 12, "componentType" : 5126, "count" : 90, "type" : "VEC3", "max" : [0.881639838218689, 0.8933608531951904, 0.9969518184661865], "min" : [-0.9791043996810913, -0.9878907203674316, -0.9628456234931946], "name" : "NORMAL"}, {"bufferView" : 0, "byteOffset" : 167376, "componentType" : 5123, "count" : 108, "type" : "SCALAR", "max" : [89], "min" : [0]}, {"bufferView" : 10, "byteOffset" : 0, "componentType" : 5126, "count" : 90, "type" : "VEC3", "max" : [-1.0799235105514526, 3.8907668590545654, -2.8032784461975098], "min" : [-2.5405330657958984, 1.9861797094345093, -5.238335609436035], "name" : "POSITION"}, {"bufferView" : 10, "byteOffset" : 12, "componentType" : 5126, "count" : 90, "type" : "VEC3", "max" : [0.9601250886917114, 0.9886151552200317, 0.9186607003211975], "min" : [-0.9715050458908081, -0.9046891927719116, -0.9155128002166748], "name" : "NORMAL"}, {"bufferView" : 0, "byteOffset" : 167592, "componentType" : 5123, "count" : 108, "type" : "SCALAR", "max" : [89], "min" : [0]}, {"bufferView" : 11, "byteOffset" : 0, "componentType" : 5126, "count" : 90, "type" : "VEC3", "max" : [0.9528201818466187, 0.946543276309967, -3.787078380584717], "min" : [-0.26553064584732056, -0.21223393082618713, -6.032434463500977], "name" : "POSITION"}, {"bufferView" : 11, "byteOffset" : 12, "componentType" : 5126, "count" : 90, "type" : "VEC3", "max" : [0.9635382890701294, 0.9755271077156067, 0.7400906085968018], "min" : [-0.961670458316803, -0.979932427406311, -0.8401655554771423], "name" : "NORMAL"}, {"bufferView" : 0, "byteOffset" : 167808, "componentType" : 5123, "count" : 108, "type" : "SCALAR", "max" : [89], "min" : [0]}, {"bufferView" : 12, "byteOffset" : 0, "componentType" : 5126, "count" : 90, "type" : "VEC3", "max" : [-3.755979537963867, 2.9150195121765137, 0.9072434902191162], "min" : [-5.98194694519043, 1.2290751934051514, -0.29264166951179504], "name" : "POSITION"}, {"bufferView" : 12, "byteOffset" : 12, "componentType" : 5126, "count" : 90, "type" : "VEC3", "max" : [0.8230379819869995, 0.9355778694152832, 0.9531052708625793], "min" : [-0.96297287940979, -0.9536466002464294, -0.9419100880622864], "name" : "NORMAL"}, {"bufferView" : 0, "byteOffset" : 168024, "componentType" : 5123, "count" : 108, "type" : "SCALAR", "max" : [89], "min" : [0]}, {"bufferView" : 13, "byteOffset" : 0, "componentType" : 5126, "count" : 90, "type" : "VEC3", "max" : [-3.6214561462402344, -0.6963358521461487, 2.3592498302459717], "min" : [-5.783947944641113, -1.9611846208572388, 0.9019986987113953], "name" : "POSITION"}, {"bufferView" : 13, "byteOffset" : 12, "componentType" : 5126, "count" : 90, "type" : "VEC3", "max" : [0.9111775159835815, 0.9702014327049255, 0.9618763327598572], "min" : [-0.9464868307113647, -0.9692217707633972, -0.9124990701675415], "name" : "NORMAL"}, {"bufferView" : 0, "byteOffset" : 168240, "componentType" : 5123, "count" : 108, "type" : "SCALAR", "max" : [89], "min" : [0]}, {"bufferView" : 14, "byteOffset" : 0, "componentType" : 5126, "count" : 90, "type" : "VEC3", "max" : [-0.9190451502799988, -3.642089366912842, -0.3458779454231262], "min" : [-1.9512265920639038, -5.686065673828125, -1.463909387588501], "name" : "POSITION"}, {"bufferView" : 14, "byteOffset" : 12, "componentType" : 5126, "count" : 90, "type" : "VEC3", "max" : [0.9906697273254395, 0.7606644034385681, 0.9115068316459656], "min" : [-0.9907885789871216, -0.8018801212310791, -0.9083971381187439], "name" : "NORMAL"}, {"bufferView" : 0, "byteOffset" : 168456, "componentType" : 5123, "count" : 108, "type" : "SCALAR", "max" : [90], "min" : [0]}, {"bufferView" : 15, "byteOffset" : 0, "componentType" : 5126, "count" : 91, "type" : "VEC3", "max" : [0.9612767696380615, -2.3370511531829834, -2.891416311264038], "min" : [-0.2431352138519287, -3.6357157230377197, -4.7209792137146], "name" : "POSITION"}, {"bufferView" : 15, "byteOffset" : 12, "componentType" : 5126, "count" : 91, "type" : "VEC3", "max" : [0.9927999377250671, 0.9623851180076599, 0.9794696569442749], "min" : [-0.9680911898612976, -0.8684627413749695, -0.9077819585800171], "name" : "NORMAL"}, {"bufferView" : 0, "byteOffset" : 168672, "componentType" : 5123, "count" : 108, "type" : "SCALAR", "max" : [89], "min" : [0]}, {"bufferView" : 16, "byteOffset" : 0, "componentType" : 5126, "count" : 90, "type" : "VEC3", "max" : [-2.473076343536377, -1.6216565370559692, 3.554356098175049], "min" : [-4.132435321807861, -3.4535653591156006, 1.8646386861801147], "name" : "POSITION"}, {"bufferView" : 16, "byteOffset" : 12, "componentType" : 5126, "count" : 90, "type" : "VEC3", "max" : [0.9068337678909302, 0.9920533299446106, 0.9070724844932556], "min" : [-0.9165123105049133, -0.881776750087738, -0.9500402212142944], "name" : "NORMAL"}, {"bufferView" : 0, "byteOffset" : 168888, "componentType" : 5123, "count" : 108, "type" : "SCALAR", "max" : [90], "min" : [0]}, {"bufferView" : 17, "byteOffset" : 0, "componentType" : 5126, "count" : 91, "type" : "VEC3", "max" : [-1.5180119276046753, 5.2003021240234375, -0.9584773182868958], "min" : [-2.8773114681243896, 3.1834988594055176, -2.1933271884918213], "name" : "POSITION"}, {"bufferView" : 17, "byteOffset" : 12, "componentType" : 5126, "count" : 91, "type" : "VEC3", "max" : [0.9734976291656494, 0.9319522380828857, 0.8804025650024414], "min" : [-0.9842999577522278, -0.8571566343307495, -0.9336122274398804], "name" : "NORMAL"}, {"bufferView" : 0, "byteOffset" : 169104, "componentType" : 5123, "count" : 108, "type" : "SCALAR", "max" : [90], "min" : [0]}, {"bufferView" : 18, "byteOffset" : 0, "componentType" : 5126, "count" : 91, "type" : "VEC3", "max" : [-3.9146389961242676, 1.0717717409133911, 2.0549540519714355], "min" : [-5.676540851593018, -0.007128543220460415, 0.746415376663208], "name" : "POSITION"}, {"bufferView" : 18, "byteOffset" : 12, "componentType" : 5126, "count" : 91, "type" : "VEC3", "max" : [0.8662771582603455, 0.9243621826171875, 0.8945788741111755], "min" : [-0.9434583783149719, -0.8990626931190491, -0.9494356513023376], "name" : "NORMAL"}, {"bufferView" : 0, "byteOffset" : 169320, "componentType" : 5123, "count" : 3000, "type" : "SCALAR", "max" : [2472], "min" : [0]}, {"bufferView" : 19, "byteOffset" : 0, "componentType" : 5126, "count" : 2473, "type" : "VEC3", "max" : [3.9331917762756348, 3.7230887413024902, 4.023728370666504], "min" : [-2.859636068344116, -3.085798501968384, -2.7714242935180664], "name" : "POSITION"}, {"bufferView" : 19, "byteOffset" : 12, "componentType" : 5126, "count" : 2473, "type" : "VEC3", "max" : [0.9943963885307312, 0.9981091618537903, 0.9990515112876892], "min" : [-0.9970216751098633, -0.9998784065246582, -0.9973751306533813], "name" : "NORMAL"}], "asset" : {"generator" : "Aspose.3D 24.1.0", "version" : "2.0"}, "buffers" : [{"uri" : "data:application/octet-stream;base64,", "byteLength" : 2279240}], "bufferViews" : [{"buffer" : 0, "byteOffset" : 0, "byteLength" : 175320, "target" : 34963}, {"buffer" : 0, "byteOffset" : 175324, "byteLength" : 1987776, "byteStride" : 24, "target" : 34962}, {"buffer" : 0, "byteOffset" : 2163104, "byteLength" : 2592, "byteStride" : 24, "target" : 34962}, {"buffer" : 0, "byteOffset" : 2165700, "byteLength" : 2592, "byteStride" : 24, "target" : 34962}, {"buffer" : 0, "byteOffset" : 2168296, "byteLength" : 2592, "byteStride" : 24, "target" : 34962}, {"buffer" : 0, "byteOffset" : 2170892, "byteLength" : 2592, "byteStride" : 24, "target" : 34962}, {"buffer" : 0, "byteOffset" : 2173488, "byteLength" : 2592, "byteStride" : 24, "target" : 34962}, {"buffer" : 0, "byteOffset" : 2176084, "byteLength" : 2592, "byteStride" : 24, "target" : 34962}, {"buffer" : 0, "byteOffset" : 2178680, "byteLength" : 2592, "byteStride" : 24, "target" : 34962}, {"buffer" : 0, "byteOffset" : 2181276, "byteLength" : 2592, "byteStride" : 24, "target" : 34962}, {"buffer" : 0, "byteOffset" : 2183872, "byteLength" : 2592, "byteStride" : 24, "target" : 34962}, {"buffer" : 0, "byteOffset" : 2186468, "byteLength" : 2592, "byteStride" : 24, "target" : 34962}, {"buffer" : 0, "byteOffset" : 2189064, "byteLength" : 2592, "byteStride" : 24, "target" : 34962}, {"buffer" : 0, "byteOffset" : 2191660, "byteLength" : 2592, "byteStride" : 24, "target" : 34962}, {"buffer" : 0, "byteOffset" : 2194256, "byteLength" : 2592, "byteStride" : 24, "target" : 34962}, {"buffer" : 0, "byteOffset" : 2196852, "byteLength" : 2592, "byteStride" : 24, "target" : 34962}, {"buffer" : 0, "byteOffset" : 2199448, "byteLength" : 2592, "byteStride" : 24, "target" : 34962}, {"buffer" : 0, "byteOffset" : 2202044, "byteLength" : 2592, "byteStride" : 24, "target" : 34962}, {"buffer" : 0, "byteOffset" : 2204640, "byteLength" : 2592, "byteStride" : 24, "target" : 34962}, {"buffer" : 0, "byteOffset" : 2207236, "byteLength" : 72000, "byteStride" : 24, "target" : 34962}], "meshes" : [{"primitives" : [{"attributes" : {"POSITION" : 1, "NORMAL" : 2}, "indices" : 0, "mode" : 4}], "name" : ""}, {"primitives" : [{"attributes" : {"POSITION" : 4, "NORMAL" : 5}, "indices" : 3, "mode" : 4}], "name" : ""}, {"primitives" : [{"attributes" : {"POSITION" : 7, "NORMAL" : 8}, "indices" : 6, "mode" : 4}], "name" : ""}, {"primitives" : [{"attributes" : {"POSITION" : 10, "NORMAL" : 11}, "indices" : 9, "mode" : 4}], "name" : ""}, {"primitives" : [{"attributes" : {"POSITION" : 13, "NORMAL" : 14}, "indices" : 12, "mode" : 4}], "name" : ""}, {"primitives" : [{"attributes" : {"POSITION" : 16, "NORMAL" : 17}, "indices" : 15, "mode" : 4}], "name" : ""}, {"primitives" : [{"attributes" : {"POSITION" : 19, "NORMAL" : 20}, "indices" : 18, "mode" : 4}], "name" : ""}, {"primitives" : [{"attributes" : {"POSITION" : 22, "NORMAL" : 23}, "indices" : 21, "mode" : 4}], "name" : ""}, {"primitives" : [{"attributes" : {"POSITION" : 25, "NORMAL" : 26}, "indices" : 24, "mode" : 4}], "name" : ""}, {"primitives" : [{"attributes" : {"POSITION" : 28, "NORMAL" : 29}, "indices" : 27, "mode" : 4}], "name" : ""}, {"primitives" : [{"attributes" : {"POSITION" : 31, "NORMAL" : 32}, "indices" : 30, "mode" : 4}], "name" : ""}, {"primitives" : [{"attributes" : {"POSITION" : 34, "NORMAL" : 35}, "indices" : 33, "mode" : 4}], "name" : ""}, {"primitives" : [{"attributes" : {"POSITION" : 37, "NORMAL" : 38}, "indices" : 36, "mode" : 4}], "name" : ""}, {"primitives" : [{"attributes" : {"POSITION" : 40, "NORMAL" : 41}, "indices" : 39, "mode" : 4}], "name" : ""}, {"primitives" : [{"attributes" : {"POSITION" : 43, "NORMAL" : 44}, "indices" : 42, "mode" : 4}], "name" : ""}, {"primitives" : [{"attributes" : {"POSITION" : 46, "NORMAL" : 47}, "indices" : 45, "mode" : 4}], "name" : ""}, {"primitives" : [{"attributes" : {"POSITION" : 49, "NORMAL" : 50}, "indices" : 48, "mode" : 4}], "name" : ""}, {"primitives" : [{"attributes" : {"POSITION" : 52, "NORMAL" : 53}, "indices" : 51, "mode" : 4}], "name" : ""}, {"primitives" : [{"attributes" : {"POSITION" : 55, "NORMAL" : 56}, "indices" : 54, "mode" : 4}], "name" : ""}], "nodes" : [{"mesh" : 0, "name" : "mmGroup0"}, {"mesh" : 1, "name" : "mmGroup2"}, {"mesh" : 2, "name" : "mmGroup4"}, {"mesh" : 3, "name" : "mmGroup6"}, {"mesh" : 4, "name" : "mmGroup8"}, {"mesh" : 5, "name" : "mmGroup10"}, {"mesh" : 6, "name" : "mmGroup12"}, {"mesh" : 7, "name" : "mmGroup14"}, {"mesh" : 8, "name" : "mmGroup16"}, {"mesh" : 9, "name" : "mmGroup18"}, {"mesh" : 10, "name" : "mmGroup20"}, {"mesh" : 11, "name" : "mmGroup22"}, {"mesh" : 12, "name" : "mmGroup24"}, {"mesh" : 13, "name" : "mmGroup26"}, {"mesh" : 14, "name" : "mmGroup28"}, {"mesh" : 15, "name" : "mmGroup30"}, {"mesh" : 16, "name" : "mmGroup32"}, {"mesh" : 17, "name" : "mmGroup34"}, {"mesh" : 18, "name" : "mmGroup36"}], "scene" : 0, "scenes" : [{"nodes" : [0, 1, 2, 3, 4, 5, 6, 7, 8, 9, 10, 11, 12, 13, 14, 15, 16, 17, 18]}]}